<?xml version="1.0" encoding="iso-8859-1"?>
<!-- Uploaded to: SVG Repo, www.svgrepo.com, Generator: SVG Repo Mixer Tools -->
<svg version="1.1" id="Layer_1" xmlns="http://www.w3.org/2000/svg" xmlns:xlink="http://www.w3.org/1999/xlink" 
	 viewBox="0 0 509.287 509.287" xml:space="preserve">
<circle style="fill:#FBD303;" cx="254.644" cy="254.644" r="254.644"/>
<path style="fill:#DEDEDF;" d="M446.22,100.026H63.068c-5.764,0-10.511,4.747-10.511,10.511v285.16
	c0,5.764,4.747,10.511,10.511,10.511H446.22c5.764,0,10.511-4.747,10.511-10.511V110.199
	C456.731,104.434,451.984,100.026,446.22,100.026z"/>
<rect x="73.918" y="119.354" style="fill:#6EB1E1;" width="361.452" height="266.85"/>
<path style="fill:#4F5565;" d="M376.371,134.951H132.917c-8.816,0-16.275,7.121-16.275,16.275v235.317h275.666V151.226
	C392.646,142.411,385.187,134.951,376.371,134.951z"/>
<rect x="181.743" y="405.87" style="fill:#BDBDBE;" width="145.801" height="38.315"/>
<rect x="135.629" y="444.525" style="fill:#DEDEDF;" width="238.029" height="19.327"/>
<rect x="130.882" y="169.197" style="fill:#F1F3F7;" width="247.523" height="217.007"/>
<circle style="fill:#F0582F;" cx="136.307" cy="154.617" r="5.425"/>
<circle style="fill:#FBD303;" cx="154.278" cy="154.617" r="5.425"/>
<circle style="fill:#71D456;" cx="172.249" cy="154.617" r="5.425"/>
<rect x="195.645" y="149.531" style="fill:#333842;" width="182.76" height="10.511"/>
<rect x="130.882" y="169.197" style="fill:#71D456;" width="247.523" height="96.636"/>
<g>
	<rect x="148.514" y="284.482" style="fill:#6EB1E1;" width="60.694" height="19.327"/>
	<rect x="224.127" y="284.482" style="fill:#6EB1E1;" width="60.694" height="19.327"/>
	<rect x="299.74" y="284.482" style="fill:#6EB1E1;" width="60.694" height="19.327"/>
</g>
<g>
	<rect x="148.514" y="367.555" style="fill:#DEDEDF;" width="60.694" height="8.138"/>
	<rect x="224.127" y="367.555" style="fill:#DEDEDF;" width="60.694" height="8.138"/>
	<rect x="299.74" y="367.555" style="fill:#DEDEDF;" width="60.694" height="8.138"/>
</g>
<circle style="fill:#4B5AA7;" cx="179.03" cy="333.987" r="21.023"/>
<g>
	<circle style="fill:#F1F3F7;" cx="179.03" cy="324.832" r="8.138"/>
	<path style="fill:#F1F3F7;" d="M179.03,355.009c6.781,0,12.546-3.052,16.275-7.799c-0.678-8.477-7.799-15.258-16.275-15.258
		c-8.816,0-15.597,6.781-16.275,15.258C166.485,351.619,172.249,355.009,179.03,355.009z"/>
</g>
<circle style="fill:#4B5AA7;" cx="254.644" cy="333.987" r="21.023"/>
<g>
	<circle style="fill:#F1F3F7;" cx="254.644" cy="324.832" r="8.138"/>
	<path style="fill:#F1F3F7;" d="M254.644,355.009c6.781,0,12.546-3.052,16.276-7.799c-0.678-8.477-7.799-15.258-16.276-15.258
		c-8.477,0-15.597,6.781-16.276,15.258C242.098,351.619,247.862,355.009,254.644,355.009z"/>
</g>
<circle style="fill:#4B5AA7;" cx="330.257" cy="333.987" r="21.023"/>
<g>
	<circle style="fill:#F1F3F7;" cx="330.257" cy="324.832" r="8.138"/>
	<path style="fill:#F1F3F7;" d="M330.257,355.009c6.781,0,12.546-3.052,16.276-7.799c-0.678-8.477-7.799-15.258-16.276-15.258
		s-15.597,6.781-16.276,15.258C317.711,351.619,323.475,355.009,330.257,355.009z"/>
</g>
<g>
	<rect x="154.278" y="245.489" style="fill:#5EBA3F;" width="68.154" height="7.46"/>
	<rect x="154.278" y="226.162" style="fill:#5EBA3F;" width="68.154" height="7.46"/>
	<rect x="154.278" y="206.834" style="fill:#5EBA3F;" width="68.154" height="7.46"/>
	<rect x="154.278" y="187.846" style="fill:#5EBA3F;" width="38.315" height="7.46"/>
</g>
</svg>